<?xml version="1.0" encoding="utf-8"?>
<!-- Generator: Adobe Illustrator 21.0.2, SVG Export Plug-In . SVG Version: 6.00 Build 0)  -->
<svg version="1.1" id="Layer_1" xmlns="http://www.w3.org/2000/svg"  x="0px" y="0px"
	 viewBox="0 0 118 158.7" style="enable-background:new 0 0 118 158.7;" xml:space="preserve">
<style type="text/css">
	.st0{fill:#F15C2F;}
	.st1{fill:#D42B27;}
	.st2{fill:#FED401;}
	.st3{fill:#FFFFFF;}
</style>
<g>
	<polygon class="st0" points="43.5,25.3 78,25.3 78,59.7 88,69.7 88,15.3 33.5,15.3 	"/>
	<polygon class="st1" points="74.5,63.3 40,63.3 40,28.8 30,18.8 30,73.3 84.5,73.3 	"/>
	<g>
		<polygon class="st2" points="70.8,32.5 50.8,32.5 70.8,52.5 		"/>
	</g>
	<g>
		<polygon class="st3" points="16,89.6 14.1,89.6 14.1,112.5 27.6,112.5 27.6,110.7 16,110.7 		"/>
		<path class="st3" d="M38.4,89.3c-5.9,0-9.9,4.7-9.9,11.8s4,11.8,9.9,11.8s9.9-4.7,9.9-11.8S44.4,89.3,38.4,89.3z M38.4,91.2
			c3.8,0,8,2.6,8,9.9c0,4.6-2.1,9.9-8,9.9c-5.9,0-8-5.1-8-9.9S32.6,91.2,38.4,91.2z"/>
		<polygon class="st3" points="49.9,91.5 56.7,91.5 56.7,112.5 58.6,112.5 58.6,91.5 65.4,91.5 65.4,89.6 49.9,89.6 		"/>
		<path class="st3" d="M83.2,103.4c0,2,0,4.1-1.1,5.5c-1.1,1.4-3.3,2.1-4.8,2.1s-3.7-0.6-4.8-2.1c-1.1-1.4-1.1-3.5-1.1-5.5V89.6
			h-1.9v14.2c0,2.3,0,4.3,1.6,6.3c1.5,1.7,3.8,2.7,6.3,2.7c2.4,0,4.8-1,6.3-2.7c1.6-1.9,1.6-4,1.6-6.3V89.6h-1.9V103.4z"/>
		<path class="st3" d="M96,97.4c-2.9-0.7-4.1-1.1-4.1-2.5c0-3.3,4.2-3.3,4.4-3.3c1.8,0,3.1,0.6,3.9,1.8l0.1,0.1h2.2l-0.2-0.4
			c-0.8-1.6-2.5-3.4-6-3.4c-2.2,0-6.3,1.1-6.3,5.3c0,3.1,3,3.8,5.6,4.4c3.3,0.8,6.5,1.6,6.4,6c-0.1,3.7-3,5.4-5.8,5.4h-0.1
			c-2.3,0-5-1.2-5.4-3.8l0-0.2h-1.9l0,0.3c0.4,3.9,4.1,5.6,7.3,5.7l0.1,0c3.7,0,7.6-2.3,7.7-7.3C104,99.3,99.4,98.2,96,97.4z"/>
	</g>
	<g>
		<path class="st3" d="M36.7,120.8v19.4h9.7l0,3.2H33.3v-19.2L36.7,120.8z"/>
		<path class="st3" d="M17.7,132.6v10.8h-3.4v-22.6h15.4l-3.2,3.2h-8.7v5.4V132.6z"/>
		<polygon class="st3" points="19.6,130.8 19.6,125.9 24.5,125.9 		"/>
		<path class="st3" d="M64.4,137.9h-9.7l-2.5,5.5h-3.7l11.2-24l10.8,24h-3.7L64.4,137.9z M63,134.7l-3.4-7.7l-3.5,7.7H63z"/>
		<path class="st3" d="M81.1,133.8l7,9.6h-4.2l-6.5-9.3h-0.6v9.3h-3.4v-22.6h4c3,0,5.1,0.6,6.5,1.7c1.5,1.2,2.2,2.9,2.2,5
			c0,1.6-0.5,3-1.4,4.1S82.6,133.4,81.1,133.8z M76.9,131.2h1.1c3.2,0,4.8-1.2,4.8-3.7c0-2.3-1.6-3.5-4.7-3.5h-1.2V131.2z"/>
		<path class="st3" d="M103.7,124h-9.1v5.4h8.8v3.2h-8.8v7.6h9.1v3.2H91.2v-22.6h12.5V124z"/>
	</g>
</g>
</svg>
